<?xml version="1.0" encoding="UTF-8"?>
<svg width="17px" height="14px" viewBox="0 0 17 14" version="1.1" xmlns="http://www.w3.org/2000/svg" xmlns:xlink="http://www.w3.org/1999/xlink">
    <title>6D4D4194-9E7A-4311-BA76-995348147DF8</title>
    <g id="Approved-stuff" stroke="none" stroke-width="1" fill="none" fill-rule="evenodd">
        <g id="SEM-Homepage" transform="translate(-1094.000000, -26.000000)" fill="#0E0F11" fill-rule="nonzero">
            <path d="M1094.75,39.9999976 C1096.82186,39.9999976 1098.37499,39.0062561 1099.14373,38.3937392 C1100.16561,38.7781377 1101.29997,39 1102.49998,39 C1106.91873,39 1110.49996,36.0906441 1110.49996,32.5000155 C1110.49996,28.9093869 1106.91873,26.000031 1102.49998,26.000031 C1098.08123,26.000031 1094.5,28.9093869 1094.5,32.5000155 C1094.5,34.0499996 1095.16876,35.4687584 1096.28125,36.5843869 C1095.89062,38.1593648 1094.58438,39.5624987 1094.56876,39.5781236 C1094.5,39.6499923 1094.48126,39.7562543 1094.52188,39.8500041 C1094.5625,39.9437539 1094.64999,39.9999976 1094.75,39.9999976 Z" id="contact-icon"></path>
        </g>
    </g>
</svg>