<svg width="163" height="20" viewBox="0 0 163 20" fill="none" xmlns="http://www.w3.org/2000/svg">
<rect x="20.04" y="5.68433" width="5.89423" height="5.6844" rx="2.8422" transform="rotate(180 20.04 5.68433)" fill="#00FF9E"/>
<rect x="20.04" y="12.5057" width="12.9673" height="5.6844" rx="2.8422" transform="rotate(180 20.04 12.5057)" fill="#A166FD"/>
<rect x="20.04" y="19.3271" width="20.0404" height="5.6844" rx="2.8422" transform="rotate(180 20.04 19.3271)" fill="#0000D4"/>
<path d="M29.8309 19.7102C29.2726 19.7102 28.8684 19.6265 28.6181 19.459C28.3678 19.3101 28.2042 19.1053 28.1272 18.8448C28.0694 18.5842 28.0405 18.305 28.0405 18.0072V1.89844C28.0405 1.58203 28.0694 1.29354 28.1272 1.03297C28.2042 0.772403 28.3582 0.567669 28.5892 0.418772C28.8395 0.269876 29.2438 0.195428 29.8021 0.195428C30.3411 0.195428 30.7262 0.269876 30.9572 0.418772C31.2075 0.567669 31.3615 0.772403 31.4192 1.03297C31.4962 1.29354 31.5347 1.58203 31.5347 1.89844V16.6951H40.3424C40.6312 16.6951 40.8911 16.723 41.1221 16.7788C41.3532 16.816 41.5361 16.9463 41.6708 17.1697C41.8056 17.3744 41.873 17.7094 41.873 18.1747C41.873 18.64 41.8056 18.9844 41.6708 19.2077C41.5361 19.4124 41.3532 19.5427 41.1221 19.5986C40.8911 19.673 40.6312 19.7102 40.3424 19.7102H29.8309Z" fill="black"/>
<path d="M45.2956 19.7102C44.7758 19.7102 44.3908 19.6265 44.1405 19.459C43.8903 19.3101 43.7362 19.1146 43.6785 18.8727C43.6207 18.6121 43.5919 18.3236 43.5919 18.0072V7.62166C43.5919 7.32387 43.6207 7.05399 43.6785 6.81203C43.7555 6.55146 43.9095 6.34673 44.1405 6.19783C44.3908 6.04894 44.7855 5.97449 45.3245 5.97449C45.8636 5.97449 46.2486 6.04894 46.4796 6.19783C46.7299 6.34673 46.8839 6.55146 46.9417 6.81203C46.9994 7.0726 47.0283 7.36109 47.0283 7.6775V18.0351C47.0283 18.3515 46.9994 18.64 46.9417 18.9006C46.8839 19.1426 46.7299 19.338 46.4796 19.4869C46.2486 19.6358 45.854 19.7102 45.2956 19.7102Z" fill="black"/>
<path d="M56.0497 19.7661C55.6454 19.7661 55.3085 19.7009 55.0389 19.5706C54.7694 19.4404 54.5576 19.2263 54.4036 18.9285L49.1479 8.2917C48.8591 7.73333 48.7821 7.28664 48.9169 6.95163C49.0516 6.61661 49.3982 6.31881 49.9565 6.05824C50.534 5.77906 50.9961 5.686 51.3426 5.77906C51.6891 5.87212 51.9972 6.21645 52.2667 6.81203L56.0497 15.3829L59.7749 6.97954C60.0444 6.36534 60.3524 5.98379 60.699 5.8349C61.0455 5.66739 61.5461 5.74184 62.2006 6.05824C62.8552 6.37465 63.2017 6.72828 63.2402 7.11913C63.2787 7.49138 63.1728 7.91945 62.9226 8.40337L57.6957 18.9285C57.5417 19.2077 57.3299 19.4124 57.0604 19.5427C56.7909 19.6916 56.454 19.7661 56.0497 19.7661Z" fill="black"/>
<path d="M70.9364 19.8777C69.685 19.8777 68.5876 19.6823 67.6443 19.2915C66.7202 18.9006 65.9405 18.3702 65.3052 17.7001C64.6891 17.0115 64.2175 16.2484 63.8902 15.4108C63.5822 14.5547 63.4282 13.6706 63.4282 12.7586C63.4282 11.4185 63.7458 10.2274 64.3811 9.18508C65.0164 8.1428 65.8924 7.32387 67.009 6.72828C68.1448 6.13269 69.4443 5.8349 70.9075 5.8349C71.9471 5.8349 72.8615 5.9931 73.6509 6.30951C74.4402 6.62591 75.0948 7.04469 75.6146 7.56582C76.1536 8.06835 76.5579 8.62672 76.8274 9.24092C77.1162 9.85511 77.2606 10.4507 77.2606 11.0277C77.2606 12.0141 77.0103 12.7307 76.5098 13.1774C76.0285 13.6241 75.422 13.8474 74.6905 13.8474H67.0667C67.086 14.4802 67.2881 15.0293 67.6732 15.4946C68.0775 15.9599 68.578 16.3228 69.1748 16.5834C69.7909 16.8253 70.4166 16.9463 71.0519 16.9463C71.5332 16.9463 71.9567 16.9184 72.3225 16.8626C72.7075 16.8067 73.0348 16.7416 73.3043 16.6671C73.5739 16.5741 73.8049 16.481 73.9974 16.388C74.2092 16.2949 74.4017 16.2112 74.575 16.1367C74.7482 16.0623 74.9119 16.0157 75.0659 15.9971C75.2777 15.9785 75.4894 16.025 75.7012 16.1367C75.913 16.2484 76.0862 16.4438 76.221 16.723C76.3365 16.9091 76.4135 17.0859 76.452 17.2534C76.5098 17.4023 76.5386 17.5512 76.5386 17.7001C76.5386 18.0724 76.3076 18.426 75.8456 18.761C75.3835 19.0774 74.729 19.338 73.8819 19.5427C73.0541 19.7661 72.0722 19.8777 70.9364 19.8777ZM67.0667 11.8652H72.9867C73.314 11.8652 73.5642 11.8187 73.7375 11.7256C73.9108 11.614 73.9974 11.3906 73.9974 11.0556C73.9974 10.6275 73.8626 10.246 73.5931 9.91095C73.3236 9.55732 72.9578 9.28745 72.4958 9.10133C72.0337 8.89659 71.4947 8.79422 70.8786 8.79422C70.1663 8.79422 69.5214 8.93382 68.9438 9.213C68.3662 9.47357 67.9042 9.8365 67.5577 10.3018C67.2304 10.7671 67.0667 11.2882 67.0667 11.8652Z" fill="black"/>
<path d="M88.8712 19.8219C87.9279 19.8219 86.9749 19.6916 86.0123 19.431C85.0497 19.1519 84.1257 18.7424 83.2401 18.2026C82.3545 17.6443 81.5652 16.9649 80.8721 16.1646C80.1983 15.3457 79.6592 14.4058 79.255 13.3449C78.8507 12.2654 78.6485 11.0742 78.6485 9.77136C78.6485 8.48712 78.8507 7.33317 79.255 6.30951C79.6592 5.26723 80.1983 4.35524 80.8721 3.57353C81.5652 2.79182 82.3449 2.14039 83.2112 1.61925C84.0968 1.09812 85.0209 0.707261 85.9835 0.446692C86.9653 0.167509 87.9375 0.0186119 88.9001 0C89.882 0 90.729 0.102366 91.4414 0.307099C92.1537 0.511833 92.7312 0.735179 93.174 0.977137C93.6168 1.20048 93.9152 1.35868 94.0692 1.45174C94.3773 1.63787 94.666 1.85191 94.9356 2.09386C95.2243 2.31721 95.3783 2.59639 95.3976 2.93141C95.4169 3.15475 95.388 3.35949 95.311 3.54561C95.234 3.71312 95.1281 3.88993 94.9933 4.07605C94.7623 4.39246 94.5313 4.62511 94.3002 4.77401C94.0692 4.9229 93.8382 4.99735 93.6072 4.99735C93.3954 4.99735 93.1933 4.94152 93.0008 4.82984C92.8275 4.71817 92.6061 4.57858 92.3366 4.41107C92.2211 4.33662 92.0093 4.22495 91.7013 4.07605C91.4125 3.90854 91.0178 3.75965 90.5173 3.62936C90.036 3.49908 89.4488 3.43394 88.7557 3.43394C87.9279 3.43394 87.1193 3.57353 86.33 3.85271C85.5407 4.13189 84.8284 4.55066 84.193 5.10903C83.577 5.64878 83.0861 6.32812 82.7203 7.14705C82.3545 7.94737 82.1716 8.86867 82.1716 9.91095C82.1716 10.9532 82.3545 11.8838 82.7203 12.7028C83.0861 13.5031 83.577 14.1824 84.193 14.7408C84.8284 15.2805 85.5407 15.69 86.33 15.9692C87.1193 16.2484 87.9279 16.388 88.7557 16.388C89.4103 16.388 89.9686 16.3321 90.4306 16.2205C90.9119 16.0902 91.3162 15.9413 91.6435 15.7738C91.99 15.5876 92.2499 15.4481 92.4232 15.355C92.635 15.2247 92.8371 15.1037 93.0296 14.9921C93.2221 14.8804 93.4243 14.8245 93.6361 14.8245C93.8671 14.8245 94.0885 14.899 94.3002 15.0479C94.5313 15.1968 94.7527 15.4387 94.9644 15.7738C95.0992 15.9785 95.2051 16.1739 95.2821 16.36C95.3591 16.5462 95.388 16.7416 95.3687 16.9463C95.3495 17.2813 95.1955 17.5698 94.9067 17.8118C94.6372 18.0351 94.3484 18.2306 94.0404 18.3981C93.8863 18.4911 93.5879 18.6586 93.1451 18.9006C92.7216 19.1239 92.1537 19.3287 91.4414 19.5148C90.729 19.7195 89.8723 19.8219 88.8712 19.8219Z" fill="black"/>
<path d="M108.674 19.6544C108.116 19.6544 107.702 19.552 107.432 19.3473C107.163 19.1426 107.028 18.8634 107.028 18.5097L107.23 17.5884C107.076 17.8304 106.816 18.1189 106.45 18.4539C106.085 18.7703 105.603 19.0588 105.006 19.3194C104.41 19.5613 103.688 19.6823 102.841 19.6823C101.936 19.6823 101.079 19.5055 100.271 19.1519C99.4812 18.7796 98.7785 18.2771 98.1624 17.6443C97.5656 16.9929 97.0843 16.2577 96.7185 15.4387C96.372 14.6012 96.1987 13.7078 96.1987 12.7586C96.1987 11.8466 96.372 10.9905 96.7185 10.1901C97.0843 9.3712 97.5752 8.64533 98.1913 8.01252C98.8074 7.3797 99.51 6.88648 100.299 6.53285C101.108 6.16061 101.955 5.97449 102.841 5.97449C103.63 5.97449 104.294 6.07686 104.833 6.28159C105.391 6.48632 105.863 6.74689 106.248 7.0633C106.633 7.36109 106.951 7.6775 107.201 8.01252L107.028 7.20289C107.028 6.79342 107.163 6.48632 107.432 6.28159C107.702 6.05824 108.125 5.94657 108.703 5.94657C109.242 5.94657 109.627 6.03033 109.858 6.19783C110.089 6.34673 110.233 6.56077 110.291 6.83995C110.349 7.10052 110.378 7.39832 110.378 7.73333V17.9514C110.378 18.2678 110.349 18.5563 110.291 18.8168C110.233 19.0774 110.079 19.2822 109.829 19.431C109.598 19.5799 109.213 19.6544 108.674 19.6544ZM103.36 16.4159C104.015 16.4159 104.602 16.2577 105.122 15.9413C105.642 15.6249 106.056 15.1968 106.364 14.657C106.691 14.0987 106.855 13.4845 106.855 12.8144C106.855 12.0886 106.691 11.4558 106.364 10.916C106.036 10.3763 105.603 9.95748 105.064 9.65969C104.544 9.34328 103.957 9.18508 103.303 9.18508C102.59 9.18508 101.955 9.35259 101.397 9.68761C100.838 10.004 100.396 10.4414 100.068 10.9998C99.7603 11.5395 99.6063 12.1537 99.6063 12.8424C99.6063 13.5124 99.7699 14.1173 100.097 14.657C100.425 15.1968 100.867 15.6249 101.426 15.9413C102.003 16.2577 102.648 16.4159 103.36 16.4159Z" fill="black"/>
<path d="M114.401 19.7102C113.882 19.7102 113.497 19.6265 113.246 19.459C113.015 19.3101 112.871 19.1053 112.813 18.8448C112.755 18.5842 112.726 18.2957 112.726 17.9793V7.62166C112.726 7.28664 112.755 6.99816 112.813 6.7562C112.871 6.49563 113.015 6.3002 113.246 6.16992C113.497 6.02102 113.891 5.94657 114.43 5.94657C114.95 5.94657 115.325 6.01171 115.557 6.142C115.807 6.27228 115.961 6.43979 116.019 6.64453C116.096 6.83065 116.134 7.01677 116.134 7.20289L115.903 7.70542C115.999 7.55652 116.134 7.3797 116.307 7.17497C116.481 6.95163 116.712 6.73759 117 6.53285C117.289 6.30951 117.636 6.13269 118.04 6.00241C118.444 5.85351 118.926 5.77906 119.484 5.77906C119.715 5.77906 119.956 5.80698 120.206 5.86282C120.475 5.90004 120.735 5.96518 120.986 6.05824C121.255 6.13269 121.496 6.23506 121.707 6.36534C121.919 6.49563 122.083 6.65383 122.198 6.83995C122.314 7.00746 122.372 7.20289 122.372 7.42623C122.372 8.02182 122.218 8.52435 121.91 8.93382C121.602 9.34328 121.236 9.54802 120.812 9.54802C120.523 9.54802 120.312 9.5201 120.177 9.46426C120.042 9.40842 119.927 9.34328 119.83 9.26883C119.753 9.19438 119.628 9.12924 119.455 9.07341C119.301 9.01757 119.051 8.98965 118.704 8.98965C118.415 8.98965 118.117 9.03618 117.809 9.12924C117.52 9.2223 117.251 9.36189 117 9.54802C116.75 9.73414 116.548 9.97609 116.394 10.2739C116.24 10.5531 116.163 10.8788 116.163 11.251V18.0351C116.163 18.3515 116.134 18.64 116.076 18.9006C116.019 19.1426 115.865 19.338 115.614 19.4869C115.364 19.6358 114.96 19.7102 114.401 19.7102Z" fill="black"/>
<path d="M130.104 19.8777C128.853 19.8777 127.755 19.6823 126.812 19.2915C125.888 18.9006 125.108 18.3702 124.473 17.7001C123.857 17.0115 123.385 16.2484 123.058 15.4108C122.75 14.5547 122.596 13.6706 122.596 12.7586C122.596 11.4185 122.914 10.2274 123.549 9.18508C124.184 8.1428 125.06 7.32387 126.177 6.72828C127.313 6.13269 128.612 5.8349 130.075 5.8349C131.115 5.8349 132.029 5.9931 132.819 6.30951C133.608 6.62591 134.263 7.04469 134.782 7.56582C135.321 8.06835 135.726 8.62672 135.995 9.24092C136.284 9.85511 136.428 10.4507 136.428 11.0277C136.428 12.0141 136.178 12.7307 135.678 13.1774C135.196 13.6241 134.59 13.8474 133.858 13.8474H126.234C126.254 14.4802 126.456 15.0293 126.841 15.4946C127.245 15.9599 127.746 16.3228 128.343 16.5834C128.959 16.8253 129.584 16.9463 130.22 16.9463C130.701 16.9463 131.124 16.9184 131.49 16.8626C131.875 16.8067 132.203 16.7416 132.472 16.6671C132.742 16.5741 132.973 16.481 133.165 16.388C133.377 16.2949 133.569 16.2112 133.743 16.1367C133.916 16.0623 134.08 16.0157 134.234 15.9971C134.445 15.9785 134.657 16.025 134.869 16.1367C135.081 16.2484 135.254 16.4438 135.389 16.723C135.504 16.9091 135.581 17.0859 135.62 17.2534C135.678 17.4023 135.706 17.5512 135.706 17.7001C135.706 18.0724 135.475 18.426 135.013 18.761C134.551 19.0774 133.897 19.338 133.05 19.5427C132.222 19.7661 131.24 19.8777 130.104 19.8777ZM126.234 11.8652H132.154C132.482 11.8652 132.732 11.8187 132.905 11.7256C133.079 11.614 133.165 11.3906 133.165 11.0556C133.165 10.6275 133.03 10.246 132.761 9.91095C132.491 9.55732 132.126 9.28745 131.664 9.10133C131.201 8.89659 130.662 8.79422 130.046 8.79422C129.334 8.79422 128.689 8.93382 128.112 9.213C127.534 9.47357 127.072 9.8365 126.725 10.3018C126.398 10.7671 126.234 11.2882 126.234 11.8652Z" fill="black"/>
<path d="M145.093 19.8777C143.842 19.8777 142.745 19.6823 141.801 19.2915C140.877 18.9006 140.098 18.3702 139.462 17.7001C138.846 17.0115 138.375 16.2484 138.047 15.4108C137.739 14.5547 137.585 13.6706 137.585 12.7586C137.585 11.4185 137.903 10.2274 138.538 9.18508C139.174 8.1428 140.049 7.32387 141.166 6.72828C142.302 6.13269 143.601 5.8349 145.065 5.8349C146.104 5.8349 147.019 5.9931 147.808 6.30951C148.597 6.62591 149.252 7.04469 149.772 7.56582C150.311 8.06835 150.715 8.62672 150.985 9.24092C151.273 9.85511 151.418 10.4507 151.418 11.0277C151.418 12.0141 151.167 12.7307 150.667 13.1774C150.186 13.6241 149.579 13.8474 148.848 13.8474H141.224C141.243 14.4802 141.445 15.0293 141.83 15.4946C142.235 15.9599 142.735 16.3228 143.332 16.5834C143.948 16.8253 144.574 16.9463 145.209 16.9463C145.69 16.9463 146.114 16.9184 146.48 16.8626C146.865 16.8067 147.192 16.7416 147.461 16.6671C147.731 16.5741 147.962 16.481 148.155 16.388C148.366 16.2949 148.559 16.2112 148.732 16.1367C148.905 16.0623 149.069 16.0157 149.223 15.9971C149.435 15.9785 149.647 16.025 149.858 16.1367C150.07 16.2484 150.243 16.4438 150.378 16.723C150.494 16.9091 150.571 17.0859 150.609 17.2534C150.667 17.4023 150.696 17.5512 150.696 17.7001C150.696 18.0724 150.465 18.426 150.003 18.761C149.541 19.0774 148.886 19.338 148.039 19.5427C147.211 19.7661 146.229 19.8777 145.093 19.8777ZM141.224 11.8652H147.144C147.471 11.8652 147.721 11.8187 147.895 11.7256C148.068 11.614 148.155 11.3906 148.155 11.0556C148.155 10.6275 148.02 10.246 147.75 9.91095C147.481 9.55732 147.115 9.28745 146.653 9.10133C146.191 8.89659 145.652 8.79422 145.036 8.79422C144.323 8.79422 143.678 8.93382 143.101 9.213C142.523 9.47357 142.061 9.8365 141.715 10.3018C141.387 10.7671 141.224 11.2882 141.224 11.8652Z" fill="black"/>
<path d="M154.914 19.7102C154.394 19.7102 154.009 19.6265 153.759 19.459C153.528 19.3101 153.383 19.1053 153.325 18.8448C153.268 18.5842 153.239 18.2957 153.239 17.9793V7.62166C153.239 7.28664 153.268 6.99816 153.325 6.7562C153.383 6.49563 153.528 6.3002 153.759 6.16992C154.009 6.02102 154.404 5.94657 154.943 5.94657C155.462 5.94657 155.838 6.01171 156.069 6.142C156.319 6.27228 156.473 6.43979 156.531 6.64453C156.608 6.83065 156.646 7.01677 156.646 7.20289L156.415 7.70542C156.512 7.55652 156.646 7.3797 156.82 7.17497C156.993 6.95163 157.224 6.73759 157.513 6.53285C157.801 6.30951 158.148 6.13269 158.552 6.00241C158.957 5.85351 159.438 5.77906 159.996 5.77906C160.227 5.77906 160.468 5.80698 160.718 5.86282C160.988 5.90004 161.248 5.96518 161.498 6.05824C161.767 6.13269 162.008 6.23506 162.22 6.36534C162.432 6.49563 162.595 6.65383 162.711 6.83995C162.826 7.00746 162.884 7.20289 162.884 7.42623C162.884 8.02182 162.73 8.52435 162.422 8.93382C162.114 9.34328 161.748 9.54802 161.325 9.54802C161.036 9.54802 160.824 9.5201 160.689 9.46426C160.554 9.40842 160.439 9.34328 160.343 9.26883C160.266 9.19438 160.141 9.12924 159.967 9.07341C159.813 9.01757 159.563 8.98965 159.216 8.98965C158.928 8.98965 158.629 9.03618 158.321 9.12924C158.032 9.2223 157.763 9.36189 157.513 9.54802C157.262 9.73414 157.06 9.97609 156.906 10.2739C156.752 10.5531 156.675 10.8788 156.675 11.251V18.0351C156.675 18.3515 156.646 18.64 156.589 18.9006C156.531 19.1426 156.377 19.338 156.127 19.4869C155.876 19.6358 155.472 19.7102 154.914 19.7102Z" fill="black"/>
<ellipse cx="45.3364" cy="2.02159" rx="1.92141" ry="1.85301" fill="black"/>
</svg>
