<svg width="97" height="96" viewBox="0 0 97 96" fill="none" xmlns="http://www.w3.org/2000/svg">
<path d="M75.1646 34.6699C82.5261 34.6699 88.5 40.6438 88.5 48.0052C88.5 55.3667 82.5261 61.3405 75.1646 61.3405V34.6699Z" fill="#FFA07A" stroke="#FFA07A" stroke-width="3" stroke-linecap="round" stroke-linejoin="round"/>
<path d="M21.8353 34.6699C14.4739 34.6699 8.5 40.6438 8.5 48.0052C8.5 55.3667 14.4739 61.3405 21.8353 61.3405V34.6699Z" fill="#FFA07A" stroke="#FFA07A" stroke-width="3" stroke-linecap="round" stroke-linejoin="round"/>
<path d="M80.7504 35.8939C85.3249 38.0106 88.5 42.6321 88.5 48.0062C88.5 55.3677 82.5261 61.3415 75.1646 61.3415V34.6709" stroke="black" stroke-width="3" stroke-linecap="round" stroke-linejoin="round"/>
<path d="M16.2142 35.9047C11.6633 38.0214 8.5 42.6429 8.5 47.9935C8.5 55.355 14.4739 61.3288 21.8353 61.3288V34.6582" stroke="black" stroke-width="3" stroke-linecap="round" stroke-linejoin="round"/>
<path d="M21.8358 34.6706C21.8358 19.9477 33.7717 8 48.5064 8C63.2411 8 75.177 19.9359 75.177 34.6706" stroke="black" stroke-width="3" stroke-linecap="round" stroke-linejoin="round"/>
<path d="M75.1651 61.3408C75.1651 68.1983 71.7378 74.2604 66.5001 77.902" stroke="black" stroke-width="3" stroke-linecap="round" stroke-linejoin="round"/>
<path d="M55.0091 81.4972C55.0091 85.0956 52.0927 88.0002 48.5061 88.0002C44.9194 88.0002 42.003 85.0838 42.003 81.4972C42.003 77.9105 44.9194 74.9941 48.5061 74.9941C52.0927 74.9941 55.0091 77.9105 55.0091 81.4972Z" fill="#FFA07A" stroke="black" stroke-width="3" stroke-linecap="round" stroke-linejoin="round"/>
<path d="M60.4419 57.3311C59.7834 58.8833 58.8426 60.2827 57.6667 61.4469C56.4907 62.6228 55.1031 63.5636 53.5508 64.2222C51.9986 64.8807 50.2935 65.2452 48.506 65.2452C46.7186 65.2452 45.0135 64.8807 43.4612 64.2222C41.9089 63.5636 40.5096 62.6228 39.3454 61.4469C38.1694 60.2709 37.2286 58.8833 36.5701 57.3311" stroke="black" stroke-width="3" stroke-linecap="round" stroke-linejoin="round"/>
<path d="M56.5497 43.7373H61.6769" stroke="black" stroke-width="3" stroke-linecap="round" stroke-linejoin="round"/>
<path d="M40.4626 43.7373H35.3237" stroke="black" stroke-width="3" stroke-linecap="round" stroke-linejoin="round"/>
<path d="M48.5179 13.8331C37.511 13.8331 28.5973 23.1584 28.5973 34.6709H28.609C28.5855 34.13 28.609 35.2236 28.609 34.6709C34.3006 32.7541 37.6873 29.0616 39.9452 24.4872C43.0967 30.9079 52.328 35.4706 61.7356 35.4706C64.064 35.4706 66.3336 35.1766 68.4385 34.6592C68.4385 35.2236 68.462 34.1065 68.4385 34.6592C68.4385 23.1584 59.5131 13.8213 48.5179 13.8213V13.8331Z" fill="#FFA07A"/>
<path d="M28.609 34.6709H28.5973C28.5973 23.1584 37.511 13.8331 48.5179 13.8331V13.8213C59.513 13.8213 68.4385 23.1584 68.4385 34.6592M28.609 34.6709C28.5855 34.13 28.609 35.2236 28.609 34.6709ZM28.609 34.6709C34.3006 32.7541 37.6873 29.0616 39.9452 24.4872C43.0967 30.9079 52.328 35.4706 61.7356 35.4706C64.064 35.4706 66.3336 35.1766 68.4385 34.6592M68.4385 34.6592C68.4385 35.2236 68.462 34.1065 68.4385 34.6592Z" stroke="#FFA07A" stroke-width="3" stroke-linecap="round" stroke-linejoin="round"/>
<path d="M28.6207 34.6592H28.609C28.609 23.1584 37.5345 13.8213 48.5297 13.8213C59.5248 13.8213 68.4503 23.1466 68.4503 34.6592" stroke="black" stroke-width="3" stroke-linecap="round" stroke-linejoin="round"/>
<path d="M68.4383 34.6711C66.3333 35.1885 64.0873 35.4707 61.7471 35.4707C52.3395 35.4707 43.1082 30.908 39.9567 24.4756" stroke="black" stroke-width="3" stroke-linecap="round" stroke-linejoin="round"/>
<path d="M61.5 80H61.5001" stroke="black" stroke-width="3" stroke-linecap="round"/>
</svg>
