<?xml version="1.0" encoding="UTF-8"?>
<svg width="15px" height="16px" viewBox="0 0 15 16" version="1.1" xmlns="http://www.w3.org/2000/svg" xmlns:xlink="http://www.w3.org/1999/xlink">
    <title>51DA0311-4D09-4AE8-83E6-1DFAFBB49A72</title>
    <g id="Approved-stuff" stroke="none" stroke-width="1" fill="none" fill-rule="evenodd">
        <g id="SEM-Homepage" transform="translate(-1217.000000, -25.000000)" fill="#0E0F11" fill-rule="nonzero">
            <g id="Group-7-Copy-2">
                <path d="M1224.49999,33.0000143 C1226.70936,33.0000143 1228.49997,31.2093997 1228.49997,29.0000334 C1228.49997,26.790648 1226.70936,25.0000334 1224.49999,25.0000334 C1222.29061,25.0000334 1220.49999,26.790648 1220.49999,29.0000334 C1220.49999,31.2093997 1222.29061,33.0000143 1224.49999,33.0000143 Z M1229.99997,40.9999952 C1230.82809,40.9999952 1231.49997,40.3281218 1231.49997,39.4999988 L1231.49997,38.2000141 C1231.49997,35.8812635 1229.61872,34.0000119 1227.29996,34.0000119 L1226.77812,34.0000119 C1226.08436,34.3187673 1225.31248,34.5000119 1224.49998,34.5000119 C1223.68749,34.5000119 1222.91875,34.3187673 1222.22185,34.0000119 L1221.7,34.0000119 C1219.38125,34.0000119 1217.5,35.8812635 1217.5,38.2000141 L1217.5,39.4999988 C1217.5,40.3281218 1218.17187,40.9999952 1219,40.9999952 L1229.99997,40.9999952 Z" id="login-icon"></path>
            </g>
        </g>
    </g>
</svg>