<?xml version="1.0" encoding="UTF-8"?>
<svg width="24px" height="17px" viewBox="0 0 24 17" version="1.1" xmlns="http://www.w3.org/2000/svg" xmlns:xlink="http://www.w3.org/1999/xlink">
    <title>F1C81929-C071-48BE-A00B-BD1F00B23B33</title>
    <g id="SEM-UK" stroke="none" stroke-width="1" fill="none" fill-rule="evenodd">
        <g id="JT-LC-SEM2" transform="translate(-571.000000, -3559.000000)" fill="#FFFFFF" fill-rule="nonzero">
            <g id="g7433" transform="translate(571.001716, 3559.001040)">
                <path d="M12.0152276,-0.00100016374 C12.0282994,-0.000980129645 12.0445128,-0.000950078501 12.0637413,-0.000905001784 L12.4311244,0.000677691839 C13.1336986,0.00484979243 14.5615601,0.0191541373 16.0937795,0.0681976055 L16.6378849,0.086989588 C18.5503425,0.158090596 20.5105737,0.286619343 21.348127,0.518959768 C22.3741823,0.798959768 23.1831875,1.61895977 23.4594331,2.65895977 C23.8947293,4.27108098 23.9465503,7.36625086 23.9522606,8.26717192 L23.9524589,8.61215286 C23.948752,9.2184639 23.9079754,12.631687 23.4594331,14.3589598 C23.1831875,15.3989598 22.3741823,16.2189598 21.348127,16.4989598 C20.5105737,16.722364 18.5503425,16.8459494 16.6378849,16.9143157 L16.0937795,16.9323849 C14.381299,16.98509 12.7991756,16.9960702 12.2142839,16.9983578 L11.7373279,16.9983337 C10.4475624,16.9930748 4.29562541,16.9436406 2.60288607,16.4789598 C1.57683077,16.1989598 0.767825636,15.3789598 0.49157998,14.3389598 C0.0431292387,12.6298689 0.00236098951,9.20176969 -0.00134521496,8.59260364 L-0.00134521496,8.40576668 C0.00236098951,7.79945564 0.0431292387,4.3862325 0.49157998,2.65895977 C0.767825636,1.61895977 1.59656261,0.778959768 2.60288607,0.498959768 C3.44043939,0.275555513 5.40067056,0.15197018 7.31312821,0.0836038257 L7.85723364,0.0655346118 C9.38945303,0.0183774308 10.8173145,0.00462325303 11.5198887,0.000611617848 L11.8872718,-0.000910202943 C11.9065004,-0.00095354594 11.9227137,-0.000982441272 11.9357856,-0.00100170483 Z M10.0437387,4.6353234 L10.0437387,11.5898689 L16.2255569,8.11259613 L10.0437387,4.6353234 Z" id="Combined-Shape"></path>
            </g>
        </g>
    </g>
</svg>