<svg width="99" height="33" viewBox="0 0 99 33" fill="none" xmlns="http://www.w3.org/2000/svg">
<g id="Google logo">
<path id="Fill 1" fill-rule="evenodd" clip-rule="evenodd" d="M23.9741 11.8363H12.4971V15.34H20.6654C20.2668 20.253 16.3276 22.3482 12.6094 22.3482C7.85219 22.3482 3.70108 18.4643 3.70108 13.0205C3.70108 7.71747 7.65822 3.63337 12.6198 3.63337C16.4478 3.63337 18.7035 6.16553 18.7035 6.16553L21.0675 3.62519C21.0675 3.62519 18.0332 0.119873 12.499 0.119873C5.45177 0.119771 0 6.29154 0 12.9579C0 19.4902 5.12838 25.8599 12.6786 25.8599C19.3191 25.8599 24.18 21.1395 24.18 14.1593C24.18 12.6866 23.9739 11.8354 23.9739 11.8354L23.9741 11.8363Z" fill="black"/>
<path id="Fill 2" fill-rule="evenodd" clip-rule="evenodd" d="M33.9376 9.48022C29.1622 9.48022 25.74 13.2299 25.74 17.603C25.74 22.0409 29.0594 25.8602 33.9937 25.8602C38.4605 25.8602 42.12 22.4312 42.12 17.6984C42.12 12.2739 37.8632 9.48022 33.9376 9.48022ZM33.9851 12.6972C36.3334 12.6972 38.5587 14.6041 38.5587 17.6768C38.5587 20.6842 36.3428 22.6454 33.9743 22.6454C31.3718 22.6454 29.3187 20.5519 29.3187 17.6529C29.3187 14.816 31.3463 12.6972 33.9851 12.6972Z" fill="black"/>
<path id="Fill 3" fill-rule="evenodd" clip-rule="evenodd" d="M51.0974 9.48022C46.3221 9.48022 42.8999 13.2299 42.8999 17.603C42.8999 22.0409 46.2193 25.8602 51.1536 25.8602C55.6204 25.8602 59.2799 22.4312 59.2799 17.6984C59.2799 12.2739 55.0231 9.48022 51.0974 9.48022ZM51.145 12.6972C53.4933 12.6972 55.7186 14.6041 55.7186 17.6768C55.7186 20.6842 53.5028 22.6454 51.1342 22.6454C48.5317 22.6454 46.4786 20.5519 46.4786 17.6529C46.4786 14.816 48.5062 12.6972 51.145 12.6972Z" fill="black"/>
<path id="Fill 4" fill-rule="evenodd" clip-rule="evenodd" d="M68.6466 9.48022C64.2757 9.48022 60.8401 13.2794 60.8401 17.5436C60.8401 22.4011 64.8231 25.6221 68.5712 25.6221C70.8887 25.6221 72.121 24.7092 73.0307 23.6612V25.2525C73.0307 28.0368 71.3274 29.704 68.7563 29.704C66.2725 29.704 65.0267 27.8712 64.5937 26.8311L61.4687 28.1277C62.5774 30.4541 64.8092 32.8802 68.7822 32.8802C73.1279 32.8802 76.4401 30.1637 76.4401 24.4664V9.76586H73.0309V11.3325C71.9825 10.2113 70.549 9.48042 68.6466 9.48042V9.48022ZM68.9629 12.6433C71.1059 12.6433 73.3063 14.4593 73.3063 17.5605C73.3063 20.7126 71.1105 22.4498 68.9155 22.4498C66.5854 22.4498 64.4172 20.5721 64.4172 17.5904C64.4172 14.4922 66.669 12.6433 68.9628 12.6433H68.9629Z" fill="black"/>
<path id="Fill 5" fill-rule="evenodd" clip-rule="evenodd" d="M90.9974 9.48022C86.9001 9.48022 83.46 12.7807 83.46 17.6508C83.46 22.804 87.2945 25.8602 91.391 25.8602C94.8099 25.8602 96.9083 23.9665 98.1607 22.2698L95.3673 20.388C94.6424 21.527 93.4305 22.6402 91.4081 22.6402C89.1363 22.6402 88.0919 21.3806 87.4447 20.1606L98.28 15.6087L97.7174 14.2747C96.6708 11.6623 94.229 9.48073 90.9978 9.48073L90.9974 9.48022ZM91.1385 12.6267C92.615 12.6267 93.6775 13.4214 94.1288 14.3743L86.8929 17.4364C86.5809 15.0657 88.7992 12.6267 91.1385 12.6267Z" fill="black"/>
<path id="Fill 6" fill-rule="evenodd" clip-rule="evenodd" d="M78.78 25.0801H81.9V0.900146H78.78V25.0801Z" fill="black"/>
</g>
</svg>
