<?xml version="1.0" encoding="UTF-8"?>
<svg width="17px" height="17px" viewBox="0 0 17 17" version="1.1" xmlns="http://www.w3.org/2000/svg" xmlns:xlink="http://www.w3.org/1999/xlink">
    <title>B5FAC0BA-4988-4046-B812-F5C4834637BF</title>
    <g id="SEM-UK" stroke="none" stroke-width="1" fill="none" fill-rule="evenodd">
        <g id="JT-LC-SEM2" transform="translate(-539.000000, -3559.000000)" fill="#FFFFFF">
            <g id="Group-27" transform="translate(0.000000, 3467.000000)">
                <path d="M556,100.550098 C556,95.8280059 552.194424,92 547.5,92 C542.805576,92 539,95.8280059 539,100.550098 C539,104.817699 542.108327,108.354902 546.171875,108.996326 L546.171875,103.021611 L544.013672,103.021611 L544.013672,100.550098 L546.171875,100.550098 L546.171875,98.6664047 C546.171875,96.5235363 547.440865,95.3398821 549.382451,95.3398821 C550.312421,95.3398821 551.285156,95.5068762 551.285156,95.5068762 L551.285156,97.611002 L550.213326,97.611002 C549.157417,97.611002 548.828125,98.2700776 548.828125,98.9462367 L548.828125,100.550098 L551.185547,100.550098 L550.808691,103.021611 L548.828125,103.021611 L548.828125,108.996326 C552.891673,108.354902 556,104.817699 556,100.550098" id="Fill-1"></path>
            </g>
        </g>
    </g>
</svg>